<svg id="Layer_1" data-name="Layer 1" xmlns="http://www.w3.org/2000/svg" viewBox="0 0 200 35"><defs><style>.cls-1{fill:#fff}.cls-2{fill:#ec1c24}.cls-3,.cls-4{fill:#0071bb}.cls-3{fill-rule:evenodd}</style></defs><title>padi-travel-logo</title><path d="M651.6 372.26l8.4 24.41h-23.52l4.73-14.67h6.15l-2.83 9.11h7.23l-6.38-18.86zm20.62.01h-10.86v5.82H669a6.32 6.32 0 0 1 6.48 6.33 6.43 6.43 0 0 1-6.59 6.35h-1.68v-8.88h-5.8v14.67h10.86c5.57-.51 9.59-6.19 9.59-12.14s-4.49-11.64-9.64-12.15zm-32.45 7.63a7.85 7.85 0 0 0-7.72-7.69H623V378h8.27a1.91 1.91 0 0 1 1.88 1.9 2 2 0 0 1-1.94 2H623v14.67h5.8v-8.87h3.27a8 8 0 0 0 7.7-7.8z" transform="translate(-583.17 -366.66)"/><path d="M100.09 5.62h6v24.29h-6z"/><path class="cls-1" d="M619.72 383v-.05a15.05 15.05 0 0 0-.63-3.57v-.06a1.86 1.86 0 0 0-1-1 .78.78 0 0 0 .24-.24 1.24 1.24 0 0 0 .07-1.08 13.49 13.49 0 0 0-2.39-3.77 2.55 2.55 0 0 0-1.32-.67l.09-.14a.91.91 0 0 0-.27-1c-2.37-2.46-5.46-4-9.77-4.71-.9-.11-1.37 0-1.48.48a.82.82 0 0 0 0 .21h-.23a.66.66 0 0 0-.58.31.6.6 0 0 0-.07.3 1.3 1.3 0 0 0-1-.43 1.39 1.39 0 0 0-.87.32.35.35 0 0 0-.06-.14.61.61 0 0 0-.58-.32h-.23a.46.46 0 0 0 0-.2c-.08-.35-.4-.52-.93-.52a4.21 4.21 0 0 0-.57 0c-4.29.75-7.39 2.24-9.76 4.72a.85.85 0 0 0-.24 1 .6.6 0 0 0 .09.15 2.46 2.46 0 0 0-1.32.66v.05a13.44 13.44 0 0 0-2.37 3.74 1.29 1.29 0 0 0 .06 1.09 1.16 1.16 0 0 0 .25.24 1.87 1.87 0 0 0-1 1v.06a16.13 16.13 0 0 0-.63 3.57 1.4 1.4 0 0 0 .65 1.1 1.16 1.16 0 0 0-.29.22 1.36 1.36 0 0 0-.35 1 15.76 15.76 0 0 0 .65 3.58 1.71 1.71 0 0 0 1.02 1.1 1.11 1.11 0 0 0-.19.18 1.31 1.31 0 0 0-.15 1.07v.06a17.35 17.35 0 0 0 2.15 3.59 1.73 1.73 0 0 0 1.65.91l-.07.11a.93.93 0 0 0 .27 1c2.37 2.46 5.46 4 9.77 4.71h.55c.53 0 .85-.18.93-.52a.51.51 0 0 0 0-.21h.24a.66.66 0 0 0 .58-.31.83.83 0 0 0 .06-.21 1.08 1.08 0 0 0 .62.19 1.27 1.27 0 0 0 .83-.34.64.64 0 0 0 .07.31.63.63 0 0 0 .58.32h.23a.69.69 0 0 0 0 .2c.09.35.4.52.94.52a4.31 4.31 0 0 0 .57 0c4.28-.75 7.38-2.24 9.75-4.72a.9.9 0 0 0 .27-1l-.08-.13a2 2 0 0 0 1.65-1 15.74 15.74 0 0 0 2.15-3.46v-.06a1.29 1.29 0 0 0-.16-1.07.76.76 0 0 0-.18-.18 1.75 1.75 0 0 0 1.07-1.1 15.76 15.76 0 0 0 .65-3.58 1.4 1.4 0 0 0-.36-1 1.13 1.13 0 0 0-.28-.21 1.41 1.41 0 0 0 .71-1.07z" transform="translate(-583.17 -366.66)"/><path class="cls-2" d="M610.17 391.17a16.26 16.26 0 0 0 5 .86s.1 0 .14.13-.19.2-.19.2a21.85 21.85 0 0 1-6.63-.93c-.58-1.19-1.57-1.11-2.38-1.58 0-.3.2-.39.42-.52 1.35.19 2.3 1.43 3.64 1.84zM599.69 390c.27.69-.48 1.67.67 1.94.5.15.73.3 1.28-.15a.6.6 0 0 0 .14-.8 1.16 1.16 0 0 1-.28-.85l.06-.05c.38 0 .47 1 1 1.32.78-1.24 2.37 0 3.24-1.08.64.22 1.51.33 1.79 1-.5.23-1.15.14-1.68.34-1.73.66-4 2.55-5.7.79l-1.92-2.46c.36-.23.92 0 1.4 0zm-7.93-14c-.6.28-.75 1.05-1.33 1.47a2.75 2.75 0 0 0-2.88.41 1.2 1.2 0 0 1 .33-1.27c1-1 2.44.41 3.36-.71.28-.23.76-.05.52.1zm1.97.05a1.06 1.06 0 0 1-.34 1.19c-.91.25-1.68.93-2.63.52.48-.69 1-1.32 2-1.13.35-.06.83-.7.97-.58z" transform="translate(-583.17 -366.66)"/><path class="cls-2" d="M591.83 378.09c.28.5-.19.87-.5 1.23a2.75 2.75 0 0 1-2.19.42c-.36-.13-.75-.55-1.2-.33-.64.64.62.94.39 1.58a3 3 0 0 0-1.49.34c-.39-.93.65-1.36.57-2.3a2.13 2.13 0 0 1 1.54-1.27c1.17-.41 1.81 1.46 2.88.33zm-3.36 3.69c.14.44.28 1-.19 1.21s-1-.33-1.19-.8a.77.77 0 0 1 .51-.82c.4-.08.81.05.87.41zm6.8.14a2.06 2.06 0 0 1 .67 1.6 2.6 2.6 0 0 1-.81 1.65c-.65.63-1.76.22-2.49.71a.85.85 0 0 1-.65-.2c.29-.17.34 0 .84-.84 1 .14 1.2-.9 1.63-1.6.14-1-2.58-1.27-.87-1.9a2.34 2.34 0 0 1 1.68.58zm18.12 2.73a14.4 14.4 0 0 1 3.21 4c-.67.35-1.25 1.18-2.15.85-.39-.36-1 .19-1.2-.47a5.57 5.57 0 0 0-1.2-3.08.62.62 0 0 0 .19-1.08 7.12 7.12 0 0 0-2.15-1.51c.08-.52.7-.52 1.09-.39zm-22.68 2.42c-.2.38-.73.38-1.09.27-1.76-.74-1-2.75-1.93-4 .36 0 .95.14 1.2-.39.11 1.53 2.46 2.33 1.82 4.12zm7.38-3.75c1.87.77 3.75 1.6 5.57 2.51 0 0 .19.23 0 .25s-1.62.3-2.07-.46a11.65 11.65 0 0 0-4.11-.69 1.69 1.69 0 0 0-1.07-.61c-.58-1.13 1.01-1.32 1.68-1z" transform="translate(-583.17 -366.66)"/><path class="cls-2" d="M608.07 386.16c-1.4 1.21-3.8 3.08-6.14 3.25a5.38 5.38 0 0 0 .29-2.86 4.58 4.58 0 0 0 4.42-1.41c.82-.88 2.41-.25 3.06-1.24.46-.24 1.5.38 2.07 1.08.14.27-.17.41-.4.38a3.82 3.82 0 0 0-3.3.8zM597 385a1.47 1.47 0 0 0 .14 1.71 3.83 3.83 0 0 0 2.55.93 7.29 7.29 0 0 1 .12 1.85c-.92.06-1.88 0-2.87-.08a11.89 11.89 0 0 1-4-.92c-.81-.33-1.75-.44-1.92-.79a5.58 5.58 0 0 1 .31-1.57c.78-.44 1.49.61 2.25-.14a2.82 2.82 0 0 0 2.54-1.37 1.41 1.41 0 0 1 .88.38z" transform="translate(-583.17 -366.66)"/><path class="cls-2" d="M601.5 386c.61.53.23 1.52.2 2.26s-.25 1.21-.39 1.85a1.28 1.28 0 0 1-1-.14l-.14-2.59c-1-.44-2.56-.06-3-1.32a.82.82 0 0 1 .49-.77 10.08 10.08 0 0 1 3.84.71zm-1.33 5.55c-.31-.19-.21-.49 0-.85s.55-.24.83-.19a.88.88 0 0 1 .53.78s-.37.86-1.36.26zm-8.74-6.03a.8.8 0 1 0-.78-.8.79.79 0 0 0 .78.8zm.8-3.73l1.69 1.11s.24.21 0 .59-.52.79-.52.79-.14.28-.5 0-1.75-1.12-1.75-1.12a.31.31 0 0 1-.08-.47c.21-.31.62-.86.62-.86a.4.4 0 0 1 .54-.04z" transform="translate(-583.17 -366.66)"/><path class="cls-3" d="M603.29 395.86h-3.82c-.44 0-.63.33-.42.73l1.58 3c.35.73 1 .77 1.47.05l1.61-3c.21-.45.02-.78-.42-.78zm-5.8-13.18a14.08 14.08 0 0 1 3.2 1.11H606a.76.76 0 0 0 .76-.8l-.34-3.44a1 1 0 0 0-.92-.79h-8.14a1 1 0 0 0-.92.79l-.23 2.35a2.29 2.29 0 0 1 .17.87c-.03.1.39-.17 1.11-.09zm1.86-10.2h4.06c.43 0 .63-.33.43-.74l-1.66-3.14a.87.87 0 0 0-1.64.06l-1.62 3.08c-.2.41 0 .74.43.74zm6.06 17.07c.17-.1.38-.26.5-.31a.89.89 0 0 0 .42-.48s.24-.47.06-.62a28.63 28.63 0 0 0-2.83 1.41c-.16.19 1.44.22 1.85 0z" transform="translate(-583.17 -366.66)"/><path class="cls-4" d="M604.52 386c.58.12 1.32-.74 2-1.27a.76.76 0 0 0-.54-.22h-3.61l.68.27c1.23.45 1.27 1.14 1.47 1.22zm-.81-12.93h-4.66a1.25 1.25 0 0 0-1.08.74l-1.11 3.49a.58.58 0 0 0 .59.77h7.86a.58.58 0 0 0 .59-.77l-1.11-3.49a1.25 1.25 0 0 0-1.08-.74z" transform="translate(-583.17 -366.66)"/><path class="cls-3" d="M602.59 390.82c.15.07.07-.13 1.61-.38.74.09.93-.12 1-.2h-2.6c-.29.33-.15.53-.01.58zm-2.59 2.24a18.59 18.59 0 0 1-2.27-2.7 1 1 0 0 0-.27-.12.58.58 0 0 0-.55.77l1.16 3.51a1.26 1.26 0 0 0 1.09.74h4.44a1.26 1.26 0 0 0 1.09-.74l.65-2c-.29.13-.63.3-1 .5-2.52 1.3-3.52.65-4.34.04zm14-14.34c-.62 0-.46.63-.46.63a19.08 19.08 0 0 1 .57 3.73s.1.65.65.66h3.71c.71 0 .75-.8.75-.8a15.11 15.11 0 0 0-.61-3.45 1.32 1.32 0 0 0-1.11-.77zm4.42 5.71h-3.67a.61.61 0 0 0-.54.31 21.59 21.59 0 0 1 2.31 2.61c.87 1.22.56 1.42.34 1.66a2.51 2.51 0 0 1-.77.5h1.4a1.18 1.18 0 0 0 1.09-.82 15.21 15.21 0 0 0 .63-3.46.76.76 0 0 0-.79-.8zm-7.51-10.78a12.86 12.86 0 0 1 2 3.69 1.12 1.12 0 0 0 1 .69h3.47a.56.56 0 0 0 .59-.83 12.56 12.56 0 0 0-2.29-3.62 2.37 2.37 0 0 0-1.25-.55h-2.91c-.97-.03-.61.62-.61.62z" transform="translate(-583.17 -366.66)"/><path class="cls-4" d="M604.13 367.65a16.43 16.43 0 0 1 5.24 4.09 1.79 1.79 0 0 0 1.54.69h2.77s1.06 0 .45-.68a16.48 16.48 0 0 0-9.47-4.55c-.95-.12-1.22.09-.53.45z" transform="translate(-583.17 -366.66)"/><path class="cls-3" d="M604.66 371.74a.94.94 0 0 0 1 .69h2.66c.92 0 .14-.71.14-.71a15.94 15.94 0 0 0-5-3.72c-.54-.22-.8-.19-.57.19a36 36 0 0 1 1.77 3.55zm3 6.26h4.05c.76 0 .44-.7.44-.7a17.67 17.67 0 0 0-2-3.65A1.06 1.06 0 0 0 609 373h-3c-.7 0-.35.64-.35.64a28.12 28.12 0 0 1 1.2 3.67.91.91 0 0 0 .81.69zm3.98 12.2h-2.27l.52.26a15.7 15.7 0 0 0 2.05.62l.11-.24s.3-.65-.41-.64zm-5.25 1.95c-.26.82-.55 1.63-.88 2.42 0 0-.51.65.39.65h2.83a1.53 1.53 0 0 0 1.2-.65 17.4 17.4 0 0 0 1.23-1.92 25 25 0 0 0-3.24-.53 4 4 0 0 0-1.53.03zm.82-3.15a1.41 1.41 0 0 0 .94.56h3.77a.82.82 0 0 0 .71-.37V389a4.64 4.64 0 0 0-.45-2 1.87 1.87 0 0 0-2.48-1.14 5.09 5.09 0 0 0-2.28 1.46 9.56 9.56 0 0 0-.25 1.4.62.62 0 0 0 .04.28zm3.79-6.63a6.25 6.25 0 0 1 2.1 1.32.55.55 0 0 0 .35-.61 17.5 17.5 0 0 0-.58-3.72.76.76 0 0 0-.8-.64h-4.26c-.58 0-.53.63-.53.63a26.93 26.93 0 0 1 .38 3.73s.19.81.81.8h.53a.74.74 0 0 0 .5-.48 1.2 1.2 0 0 1 1.5-1.03zm2.5 13.46h-2.77a1.84 1.84 0 0 0-1.55.7 16.53 16.53 0 0 1-5.23 4.09c-.69.35-.43.57.53.44 3.68-.64 6.94-1.92 9.46-4.55.62-.69-.44-.68-.44-.68zm-5.2.72s.79-.72-.13-.72h-2.67a.93.93 0 0 0-1 .69 35.13 35.13 0 0 1-1.72 3.56c-.23.38 0 .4.57.19a15.93 15.93 0 0 0 4.95-3.72zm-16.17-1.93a18.36 18.36 0 0 1-2-3.75.77.77 0 0 0-.84-.63h-3.63c-.8 0-.57.84-.57.84a16.18 16.18 0 0 0 2.13 3.53 1.15 1.15 0 0 0 1.2.65H592c.55.01.13-.64.13-.64zm-5.54-12.34c-.18-.23.1-.47 0-.55-.78-.73-.22-1.3 0-1.77a7 7 0 0 0 .34-1.2h-1.49a1.3 1.3 0 0 0-1.11.77 14.17 14.17 0 0 0-.61 3.46s0 .77.75.8h2.94v-.08a4.86 4.86 0 0 0-.82-1.43zm1.2 3.4a9.33 9.33 0 0 0-.22-1.2h-3.1a.75.75 0 0 0-.78.79 15.3 15.3 0 0 0 .63 3.47 1.18 1.18 0 0 0 1.09.81H589c.71 0 .56-.9.56-.9a1.45 1.45 0 0 0-.37-.87 3 3 0 0 1-1.4-2.1zm-.4-9.25c.48-.73 2-.58 2.44-.58a2.58 2.58 0 0 0 .89-.16 13.26 13.26 0 0 1 1.26-2s.37-.62-.54-.62h-2.91a2 2 0 0 0-1.25.55 12.82 12.82 0 0 0-2.3 3.62.57.57 0 0 0 .6.83h1.35a2 2 0 0 1 .46-1.64zm1.96-3.95H592a1.8 1.8 0 0 0 1.55-.7 16.57 16.57 0 0 1 5.24-4.09c.69-.35.42-.57-.53-.44-3.69.64-6.94 1.92-9.47 4.55-.63.69.56.68.56.68zm5.06-.72s-.78.72.13.72h2.67a1 1 0 0 0 1-.69 35.13 35.13 0 0 1 1.72-3.56c.22-.38 0-.4-.57-.19a16 16 0 0 0-4.95 3.72zm-1.87 4.47c1.11-.52 1.36-1 1.49-.64.58 1.76-.64 2.12-.94 2.27a.94.94 0 0 0-.32.21h2.47a.91.91 0 0 0 .85-.69 27.14 27.14 0 0 1 1.2-3.67s.35-.64-.36-.64h-3.08a1 1 0 0 0-1.11.65 16.74 16.74 0 0 0-1.1 1.76c.88.05.43.97.9.75zm1.62 19.03H597c.9 0 .39-.65.39-.65a26.51 26.51 0 0 1-1.26-3.74.71.71 0 0 0-.82-.63h-4c-.71 0-.41.64-.41.64a17.87 17.87 0 0 0 2.12 3.74 1.49 1.49 0 0 0 1.14.64zm-4.1-7.21a2.25 2.25 0 0 0 .09.82.81.81 0 0 0 .83.68h3.71a25.94 25.94 0 0 1-3.75-1.27c-.56-.28-.86-.35-.88-.23zm-.06-7.72h-.17a17.58 17.58 0 0 0-.36 2.73 1.31 1.31 0 0 0 .26.44c.1.11.88.7 1.17.28.12-.18.06-.13.06-.19 0-.33-.41-.4-.42-.61a3.77 3.77 0 0 1 1-1.56.45.45 0 0 1 .69.06c.26.25.94-.7 1.82-.61a4.07 4.07 0 0 1 1.38.34c.06-.61.14-1.22.25-1.83 0 0 .05-.64-.54-.63h-2.76l-.07.14a2.43 2.43 0 0 1-2.31 1.44zm9 20.33a16.68 16.68 0 0 1-5.24-4.09 1.79 1.79 0 0 0-1.54-.69h-2.82s-1.06 0-.44.68c2.52 2.63 5.78 3.91 9.46 4.55.95.12 1.22-.11.58-.45z" transform="translate(-583.17 -366.66)"/><path class="cls-4" d="M598.42 396.57a.94.94 0 0 0-1-.69h-2.66c-.92 0-.14.71-.14.71a15.94 15.94 0 0 0 5 3.72c.54.22.8.19.57-.19a36 36 0 0 1-1.77-3.55z" transform="translate(-583.17 -366.66)"/><path class="cls-3" d="M588.85 381.82s.69-1.59.07-1.82c-.46-.16-.58 0-.45.27s.48.46.22 1.07c-.1.25.16.48.16.48z" transform="translate(-583.17 -366.66)"/><path class="cls-4" d="M613.64 390.2h3.64c.8 0 .56.84.56.84a15.44 15.44 0 0 1-2.12 3.39 1.49 1.49 0 0 1-1.35.79h-3.46c-.57 0-.14-.64-.14-.64a19.13 19.13 0 0 0 1.11-1.79h.23c2 .23 3.28.12 3.43-.06s1.17-1.57-1.76-1.49a7.29 7.29 0 0 1-1.13-.07c.05-.13.06-.27.11-.39a.82.82 0 0 1 .88-.58z" transform="translate(-583.17 -366.66)"/><path d="M695.77 374.49v-2.2h18.45v2.2h-8v21.91h-2.52v-21.91zm17.84 21.91v-16.08a12.18 12.18 0 0 1 6.57-1.89 13 13 0 0 1 3 .36v2.38a9.6 9.6 0 0 0-3.13-.46 8 8 0 0 0-4 .91v14.78zm10.51-4.89a4.36 4.36 0 0 1 2.26-4 12.33 12.33 0 0 1 6.35-1.36h2V384a3.25 3.25 0 0 0-1-2.56 4 4 0 0 0-2.74-.88 11.29 11.29 0 0 0-5.19 1.42v-2.32a11.25 11.25 0 0 1 5.47-1.38c3.93 0 5.89 1.86 5.89 5.56v12.26a19.22 19.22 0 0 1-5 .62 11.52 11.52 0 0 1-5.88-1.26 4.28 4.28 0 0 1-2.16-3.95zm4.15-2.52a2.67 2.67 0 0 0-1.71 2.52 2.56 2.56 0 0 0 1.54 2.49 9.39 9.39 0 0 0 4.15.77 13.3 13.3 0 0 0 2.46-.24v-6.34h-1.82a10.79 10.79 0 0 0-4.62.81zm10.4-10.28h2.56l5.77 15.41 5.77-15.41h2.48l-6.94 17.69h-2.7zm16.96 8.86A9.41 9.41 0 0 1 758 381a7.77 7.77 0 0 1 6-2.65 7.34 7.34 0 0 1 5.43 2 7.68 7.68 0 0 1 2 5.7v1.67h-13.37v.07a6.58 6.58 0 0 0 1.94 5 6.44 6.44 0 0 0 4.65 1.87 10.42 10.42 0 0 0 3.26-.47 10 10 0 0 0 2.79-1.49v2.41a9.78 9.78 0 0 1-6.05 1.75 8.86 8.86 0 0 1-6.48-2.5 9 9 0 0 1-2.54-6.79zm2.59-1.94H769a5.38 5.38 0 0 0-1.46-3.88 5.19 5.19 0 0 0-3.65-1.24 5.31 5.31 0 0 0-3.64 1.35 6.69 6.69 0 0 0-2.03 3.77zM775 396.4v-27.6h2.42v27.6zm4.69.13v-2H779v-.26h1.78v.26H780v2zm1.31 0v-2.24h.44l.54 1.59a3.43 3.43 0 0 1 .1.33l.12-.36.54-1.56h.4v2.24h-.29v-1.88l-.65 1.88h-.2l-.65-1.91v1.91z" transform="translate(-583.17 -366.66)"/></svg>